# MagicaVoxel @ Ephtracy

# group
o 

# material
mtllib Tile_001.mtl
usemtl palette

# normals
vn -1 0 0
vn 1 0 0
vn 0 0 1
vn 0 0 -1
vn 0 -1 0
vn 0 1 0

# texcoords
vt 0.0683594 0.5
vt 0.0917969 0.5
vt 0.306641 0.5
vt 0.716797 0.5
vt 0.837891 0.5
vt 0.884766 0.5
vt 0.892578 0.5

# verts
v -0.5 0 0.5
v -0.5 0 -0.3
v -0.5 0 -0.4
v -0.5 0 -0.5
v -0.5 0.1 0.5
v -0.5 0.1 -0.3
v -0.5 0.1 -0.4
v -0.5 0.1 -0.5
v -0.5 0.2 0.4
v -0.5 0.2 0.3
v -0.5 0.2 0.1
v -0.5 0.2 0
v -0.5 0.3 0.4
v -0.5 0.3 0.3
v -0.5 0.3 0.1
v -0.5 0.3 0
v -0.5 0.3 -0.2
v -0.5 0.4 0.2
v -0.5 0.4 0.1
v -0.5 0.4 0
v -0.5 0.4 -0.2
v -0.5 0.4 -0.3
v -0.5 0.4 -0.4
v -0.5 0.5 0.5
v -0.5 0.5 0.4
v -0.5 0.5 0.2
v -0.5 0.5 0.1
v -0.5 0.5 -0.3
v -0.5 0.5 -0.4
v -0.5 0.6 0.5
v -0.5 0.6 0.4
v -0.5 0.6 0.2
v -0.5 0.6 0.1
v -0.5 0.6 -0.1
v -0.5 0.6 -0.2
v -0.5 0.7 0.5
v -0.5 0.7 0.4
v -0.5 0.7 0.3
v -0.5 0.7 0.2
v -0.5 0.7 0.1
v -0.5 0.7 0
v -0.5 0.7 -0.2
v -0.5 0.7 -0.3
v -0.5 0.7 -0.4
v -0.5 0.7 -0.5
v -0.5 0.8 0.4
v -0.5 0.8 0.3
v -0.5 0.8 0.2
v -0.5 0.8 0.1
v -0.5 0.8 0
v -0.5 0.8 -0.1
v -0.5 0.8 -0.3
v -0.5 0.8 -0.4
v -0.5 0.9 -0.1
v -0.5 0.9 -0.3
v -0.5 1 0.5
v -0.5 1 0.2
v -0.5 1 0.1
v -0.5 1 -0.5
v 0.5 0 0.5
v 0.5 0 0.4
v 0.5 0 0.3
v 0.5 0 -0.1
v 0.5 0 -0.4
v 0.5 0 -0.5
v 0.5 0.1 0.5
v 0.5 0.1 0.4
v 0.5 0.1 0.3
v 0.5 0.1 -0.1
v 0.5 0.1 -0.4
v 0.5 0.1 -0.5
v 0.5 0.2 0.5
v 0.5 0.2 0.4
v 0.5 0.2 -0.1
v 0.5 0.2 -0.3
v 0.5 0.3 0.5
v 0.5 0.3 0.4
v 0.5 0.3 0.1
v 0.5 0.3 0
v 0.5 0.3 -0.1
v 0.5 0.3 -0.3
v 0.5 0.3 -0.4
v 0.5 0.3 -0.5
v 0.5 0.4 0.1
v 0.5 0.4 0
v 0.5 0.4 -0.4
v 0.5 0.4 -0.5
v 0.5 0.5 -0.2
v 0.5 0.5 -0.3
v 0.5 0.6 0.5
v 0.5 0.6 0.4
v 0.5 0.6 0.3
v 0.5 0.6 0.1
v 0.5 0.6 0
v 0.5 0.6 -0.2
v 0.5 0.6 -0.3
v 0.5 0.7 0.4
v 0.5 0.7 0.3
v 0.5 0.7 0.2
v 0.5 0.7 0.1
v 0.5 0.7 0
v 0.5 0.7 -0.1
v 0.5 0.7 -0.2
v 0.5 0.7 -0.3
v 0.5 0.7 -0.4
v 0.5 0.7 -0.5
v 0.5 0.8 0.3
v 0.5 0.8 0.2
v 0.5 0.8 -0.1
v 0.5 0.8 -0.2
v 0.5 0.8 -0.3
v 0.5 0.8 -0.4
v 0.5 0.9 0.3
v 0.5 0.9 0.1
v 0.5 0.9 -0.2
v 0.5 0.9 -0.3
v 0.5 1 0.5
v 0.5 1 0.3
v 0.5 1 0.1
v 0.5 1 -0.2
v 0.5 1 -0.3
v 0.5 1 -0.5
v -0.5 0 0.5
v -0.5 0.1 0.5
v -0.5 0.5 0.5
v -0.5 0.6 0.5
v -0.5 0.7 0.5
v -0.5 1 0.5
v -0.4 0.5 0.5
v -0.4 0.6 0.5
v -0.4 0.7 0.5
v -0.4 0.8 0.5
v -0.3 0.7 0.5
v -0.3 0.8 0.5
v -0.2 0.3 0.5
v -0.2 0.4 0.5
v -0.2 0.6 0.5
v -0.2 0.7 0.5
v -0.1 0.2 0.5
v -0.1 0.3 0.5
v -0.1 0.4 0.5
v -0.1 0.6 0.5
v -0.1 0.8 0.5
v -0.1 0.9 0.5
v 0 0.4 0.5
v 0 0.5 0.5
v 0 0.7 0.5
v 0 0.8 0.5
v 0 0.9 0.5
v 0.1 0.2 0.5
v 0.1 0.3 0.5
v 0.1 0.4 0.5
v 0.1 0.5 0.5
v 0.1 0.7 0.5
v 0.1 0.8 0.5
v 0.2 0.3 0.5
v 0.2 0.5 0.5
v 0.2 0.7 0.5
v 0.2 0.8 0.5
v 0.3 0.3 0.5
v 0.3 0.5 0.5
v 0.3 0.7 0.5
v 0.3 0.8 0.5
v 0.4 0.2 0.5
v 0.4 0.3 0.5
v 0.4 0.6 0.5
v 0.4 0.7 0.5
v 0.5 0 0.5
v 0.5 0.1 0.5
v 0.5 0.2 0.5
v 0.5 0.3 0.5
v 0.5 0.6 0.5
v 0.5 1 0.5
v -0.5 0 -0.5
v -0.5 0.1 -0.5
v -0.5 0.7 -0.5
v -0.5 1 -0.5
v -0.4 0.5 -0.5
v -0.4 0.6 -0.5
v -0.4 0.7 -0.5
v -0.4 0.8 -0.5
v -0.3 0.5 -0.5
v -0.3 0.6 -0.5
v -0.3 0.8 -0.5
v -0.3 0.9 -0.5
v -0.2 0.2 -0.5
v -0.2 0.3 -0.5
v -0.2 0.8 -0.5
v -0.2 0.9 -0.5
v -0.1 0.6 -0.5
v -0.1 0.8 -0.5
v 0 0.7 -0.5
v 0 0.8 -0.5
v 0.1 0.2 -0.5
v 0.1 0.3 -0.5
v 0.1 0.4 -0.5
v 0.1 0.5 -0.5
v 0.1 0.6 -0.5
v 0.1 0.7 -0.5
v 0.1 0.8 -0.5
v 0.1 1 -0.5
v 0.2 0.4 -0.5
v 0.2 0.5 -0.5
v 0.2 0.6 -0.5
v 0.2 0.7 -0.5
v 0.2 0.8 -0.5
v 0.2 1 -0.5
v 0.3 0.7 -0.5
v 0.3 0.8 -0.5
v 0.4 0.3 -0.5
v 0.4 0.4 -0.5
v 0.4 0.7 -0.5
v 0.4 0.8 -0.5
v 0.5 0 -0.5
v 0.5 0.1 -0.5
v 0.5 0.3 -0.5
v 0.5 0.4 -0.5
v 0.5 0.7 -0.5
v 0.5 1 -0.5
v -0.5 0 0.5
v 0.5 0 0.5
v -0.4 0 0.4
v 0.5 0 0.4
v 0.4 0 0.3
v 0.5 0 0.3
v 0.4 0 -0.1
v 0.5 0 -0.1
v -0.5 0 -0.3
v -0.4 0 -0.3
v -0.5 0 -0.4
v 0.5 0 -0.4
v -0.5 0 -0.5
v 0.5 0 -0.5
v -0.5 1 0.5
v 0.5 1 0.5
v -0.1 1 0.4
v 0 1 0.4
v 0.1 1 0.4
v 0.2 1 0.4
v -0.4 1 0.3
v -0.3 1 0.3
v -0.2 1 0.3
v -0.1 1 0.3
v 0 1 0.3
v 0.1 1 0.3
v 0.2 1 0.3
v 0.3 1 0.3
v 0.4 1 0.3
v 0.5 1 0.3
v -0.5 1 0.2
v -0.4 1 0.2
v -0.3 1 0.2
v -0.2 1 0.2
v 0.1 1 0.2
v 0.2 1 0.2
v -0.5 1 0.1
v -0.4 1 0.1
v -0.2 1 0.1
v -0.1 1 0.1
v 0.3 1 0.1
v 0.4 1 0.1
v 0.5 1 0.1
v -0.2 1 0
v -0.1 1 0
v 0 1 0
v 0.3 1 0
v 0.4 1 0
v -0.1 1 -0.1
v 0 1 -0.1
v -0.4 1 -0.2
v -0.3 1 -0.2
v -0.2 1 -0.2
v 0.1 1 -0.2
v 0.2 1 -0.2
v 0.3 1 -0.2
v 0.5 1 -0.2
v -0.3 1 -0.3
v -0.2 1 -0.3
v -0.1 1 -0.3
v 0 1 -0.3
v 0.1 1 -0.3
v 0.2 1 -0.3
v 0.3 1 -0.3
v 0.5 1 -0.3
v -0.4 1 -0.4
v -0.3 1 -0.4
v -0.1 1 -0.4
v 0 1 -0.4
v 0.1 1 -0.4
v 0.2 1 -0.4
v 0.3 1 -0.4
v -0.5 1 -0.5
v 0.1 1 -0.5
v 0.2 1 -0.5
v 0.5 1 -0.5

# faces
f 5/2/1 2/2/1 1/2/1
f 6/1/1 3/1/1 2/1/1
f 6/2/1 2/2/1 5/2/1
f 7/2/1 4/2/1 3/2/1
f 7/1/1 3/1/1 6/1/1
f 8/2/1 4/2/1 7/2/1
f 9/1/1 6/1/1 5/1/1
f 9/1/1 7/1/1 6/1/1
f 9/1/1 8/1/1 7/1/1
f 10/1/1 8/1/1 9/1/1
f 11/1/1 8/1/1 10/1/1
f 12/1/1 8/1/1 11/1/1
f 13/1/1 9/1/1 5/1/1
f 13/2/1 10/2/1 9/2/1
f 14/1/1 11/1/1 10/1/1
f 14/2/1 10/2/1 13/2/1
f 15/2/1 12/2/1 11/2/1
f 15/1/1 11/1/1 14/1/1
f 16/1/1 8/1/1 12/1/1
f 16/2/1 12/2/1 15/2/1
f 17/1/1 8/1/1 16/1/1
f 18/1/1 15/1/1 14/1/1
f 18/1/1 14/1/1 13/1/1
f 18/1/1 16/1/1 15/1/1
f 19/1/1 16/1/1 18/1/1
f 20/2/1 17/2/1 16/2/1
f 20/1/1 16/1/1 19/1/1
f 21/1/1 8/1/1 17/1/1
f 21/2/1 17/2/1 20/2/1
f 22/1/1 8/1/1 21/1/1
f 23/1/1 8/1/1 22/1/1
f 24/1/1 13/1/1 5/1/1
f 24/1/1 18/1/1 13/1/1
f 25/1/1 18/1/1 24/1/1
f 26/2/1 19/2/1 18/2/1
f 26/1/1 18/1/1 25/1/1
f 27/1/1 20/1/1 19/1/1
f 27/2/1 19/2/1 26/2/1
f 27/1/1 21/1/1 20/1/1
f 27/1/1 22/1/1 21/1/1
f 28/2/1 23/2/1 22/2/1
f 28/1/1 22/1/1 27/1/1
f 29/1/1 8/1/1 23/1/1
f 29/2/1 23/2/1 28/2/1
f 30/2/1 25/2/1 24/2/1
f 31/1/1 26/1/1 25/1/1
f 31/2/1 25/2/1 30/2/1
f 31/1/1 28/1/1 27/1/1
f 31/1/1 29/1/1 28/1/1
f 31/1/1 27/1/1 26/1/1
f 32/1/1 29/1/1 31/1/1
f 33/1/1 29/1/1 32/1/1
f 34/1/1 29/1/1 33/1/1
f 35/1/1 29/1/1 34/1/1
f 36/1/1 31/1/1 30/1/1
f 36/1/1 32/1/1 31/1/1
f 37/1/1 32/1/1 36/1/1
f 38/1/1 32/1/1 37/1/1
f 39/6/1 33/6/1 32/6/1
f 39/1/1 32/1/1 38/1/1
f 40/1/1 34/1/1 33/1/1
f 40/6/1 33/6/1 39/6/1
f 41/1/1 34/1/1 40/1/1
f 42/1/1 29/1/1 35/1/1
f 42/6/1 35/6/1 34/6/1
f 43/1/1 29/1/1 42/1/1
f 44/1/1 8/1/1 29/1/1
f 44/1/1 29/1/1 43/1/1
f 45/1/1 8/1/1 44/1/1
f 46/1/1 38/1/1 37/1/1
f 46/6/1 37/6/1 36/6/1
f 47/6/1 41/6/1 40/6/1
f 47/1/1 38/1/1 46/1/1
f 47/6/1 39/6/1 38/6/1
f 47/6/1 40/6/1 39/6/1
f 48/6/1 41/6/1 47/6/1
f 49/6/1 41/6/1 48/6/1
f 50/1/1 34/1/1 41/1/1
f 50/6/1 41/6/1 49/6/1
f 51/6/1 43/6/1 42/6/1
f 51/1/1 34/1/1 50/1/1
f 51/6/1 42/6/1 34/6/1
f 52/1/1 44/1/1 43/1/1
f 52/6/1 43/6/1 51/6/1
f 53/6/1 45/6/1 44/6/1
f 53/1/1 44/1/1 52/1/1
f 54/6/1 50/6/1 49/6/1
f 54/6/1 51/6/1 50/6/1
f 54/7/1 52/7/1 51/7/1
f 55/6/1 53/6/1 52/6/1
f 55/7/1 52/7/1 54/7/1
f 56/6/1 46/6/1 36/6/1
f 56/6/1 47/6/1 46/6/1
f 56/6/1 48/6/1 47/6/1
f 57/7/1 49/7/1 48/7/1
f 57/6/1 48/6/1 56/6/1
f 58/6/1 54/6/1 49/6/1
f 58/7/1 49/7/1 57/7/1
f 58/6/1 55/6/1 54/6/1
f 59/6/1 45/6/1 53/6/1
f 59/6/1 55/6/1 58/6/1
f 59/6/1 53/6/1 55/6/1
f 60/2/2 61/2/2 66/2/2
f 61/1/2 62/1/2 67/1/2
f 66/2/2 61/2/2 67/2/2
f 62/2/2 63/2/2 68/2/2
f 67/1/2 62/1/2 68/1/2
f 63/1/2 64/1/2 69/1/2
f 68/2/2 63/2/2 69/2/2
f 64/2/2 65/2/2 70/2/2
f 69/1/2 64/1/2 70/1/2
f 70/2/2 65/2/2 71/2/2
f 68/1/2 69/1/2 72/1/2
f 66/1/2 67/1/2 72/1/2
f 70/1/2 71/1/2 72/1/2
f 69/1/2 70/1/2 72/1/2
f 67/1/2 68/1/2 72/1/2
f 72/1/2 71/1/2 73/1/2
f 73/1/2 71/1/2 74/1/2
f 74/1/2 71/1/2 75/1/2
f 72/2/2 73/2/2 76/2/2
f 73/1/2 74/1/2 77/1/2
f 76/2/2 73/2/2 77/2/2
f 77/1/2 74/1/2 78/1/2
f 78/1/2 74/1/2 79/1/2
f 74/2/2 75/2/2 80/2/2
f 79/1/2 74/1/2 80/1/2
f 75/1/2 71/1/2 81/1/2
f 80/2/2 75/2/2 81/2/2
f 81/1/2 71/1/2 82/1/2
f 82/1/2 71/1/2 83/1/2
f 78/2/2 79/2/2 84/2/2
f 76/1/2 77/1/2 84/1/2
f 77/1/2 78/1/2 84/1/2
f 79/1/2 80/1/2 85/1/2
f 84/2/2 79/2/2 85/2/2
f 81/1/2 82/1/2 85/1/2
f 80/1/2 81/1/2 85/1/2
f 82/2/2 83/2/2 86/2/2
f 85/1/2 82/1/2 86/1/2
f 86/2/2 83/2/2 87/2/2
f 84/1/2 85/1/2 88/1/2
f 85/1/2 86/1/2 88/1/2
f 86/1/2 87/1/2 88/1/2
f 88/1/2 87/1/2 89/1/2
f 76/1/2 84/1/2 90/1/2
f 84/1/2 88/1/2 90/1/2
f 90/1/2 88/1/2 91/1/2
f 91/1/2 88/1/2 92/1/2
f 92/1/2 88/1/2 93/1/2
f 93/1/2 88/1/2 94/1/2
f 88/6/2 89/6/2 95/6/2
f 94/1/2 88/1/2 95/1/2
f 89/1/2 87/1/2 96/1/2
f 95/6/2 89/6/2 96/6/2
f 90/6/2 91/6/2 97/6/2
f 91/2/2 92/2/2 97/2/2
f 92/1/2 93/1/2 98/1/2
f 97/2/2 92/2/2 98/2/2
f 98/1/2 93/1/2 99/1/2
f 93/6/2 94/6/2 100/6/2
f 99/1/2 93/1/2 100/1/2
f 94/1/2 95/1/2 101/1/2
f 100/6/2 94/6/2 101/6/2
f 95/1/2 96/1/2 101/1/2
f 101/1/2 96/1/2 102/1/2
f 102/1/2 96/1/2 103/1/2
f 96/1/2 87/1/2 104/1/2
f 103/1/2 96/1/2 104/1/2
f 104/1/2 87/1/2 105/1/2
f 105/1/2 87/1/2 106/1/2
f 98/1/2 99/1/2 107/1/2
f 97/6/2 98/6/2 107/6/2
f 99/6/2 100/6/2 108/6/2
f 107/1/2 99/1/2 108/1/2
f 100/6/2 101/6/2 108/6/2
f 101/6/2 102/6/2 108/6/2
f 102/1/2 103/1/2 109/1/2
f 108/6/2 102/6/2 109/6/2
f 103/6/2 104/6/2 110/6/2
f 109/1/2 103/1/2 110/1/2
f 104/1/2 105/1/2 111/1/2
f 110/6/2 104/6/2 111/6/2
f 105/6/2 106/6/2 112/6/2
f 111/1/2 105/1/2 112/1/2
f 97/6/2 107/6/2 113/6/2
f 107/6/2 108/6/2 113/6/2
f 111/6/2 112/6/2 113/6/2
f 108/6/2 109/6/2 113/6/2
f 109/6/2 110/6/2 113/6/2
f 110/6/2 111/6/2 113/6/2
f 113/6/2 112/6/2 114/6/2
f 114/6/2 112/6/2 115/6/2
f 115/6/2 112/6/2 116/6/2
f 90/6/2 97/6/2 117/6/2
f 97/6/2 113/6/2 117/6/2
f 113/7/2 114/7/2 118/7/2
f 117/6/2 113/6/2 118/6/2
f 114/6/2 115/6/2 119/6/2
f 118/7/2 114/7/2 119/7/2
f 115/7/2 116/7/2 120/7/2
f 119/6/2 115/6/2 120/6/2
f 116/6/2 112/6/2 121/6/2
f 120/7/2 116/7/2 121/7/2
f 112/6/2 106/6/2 122/6/2
f 121/6/2 112/6/2 122/6/2
f 129/1/3 125/1/3 124/1/3
f 129/2/3 126/2/3 125/2/3
f 130/1/3 127/1/3 126/1/3
f 130/2/3 126/2/3 129/2/3
f 131/6/3 128/6/3 127/6/3
f 131/1/3 127/1/3 130/1/3
f 132/6/3 128/6/3 131/6/3
f 133/1/3 130/1/3 129/1/3
f 133/1/3 131/1/3 130/1/3
f 133/1/3 132/1/3 131/1/3
f 134/6/3 128/6/3 132/6/3
f 134/1/3 132/1/3 133/1/3
f 135/1/3 133/1/3 129/1/3
f 135/1/3 129/1/3 124/1/3
f 136/1/3 133/1/3 135/1/3
f 137/1/3 133/1/3 136/1/3
f 138/6/3 134/6/3 133/6/3
f 138/1/3 133/1/3 137/1/3
f 139/1/3 135/1/3 124/1/3
f 140/2/3 136/2/3 135/2/3
f 140/1/3 135/1/3 139/1/3
f 141/1/3 137/1/3 136/1/3
f 141/2/3 136/2/3 140/2/3
f 142/6/3 138/6/3 137/6/3
f 142/1/3 137/1/3 141/1/3
f 143/6/3 128/6/3 134/6/3
f 143/6/3 138/6/3 142/6/3
f 143/6/3 134/6/3 138/6/3
f 144/6/3 128/6/3 143/6/3
f 145/1/3 142/1/3 141/1/3
f 145/1/3 141/1/3 140/1/3
f 145/1/3 143/1/3 142/1/3
f 146/1/3 143/1/3 145/1/3
f 147/1/3 143/1/3 146/1/3
f 148/7/3 144/7/3 143/7/3
f 148/1/3 143/1/3 147/1/3
f 149/6/3 128/6/3 144/6/3
f 149/7/3 144/7/3 148/7/3
f 150/2/3 140/2/3 139/2/3
f 150/1/3 139/1/3 124/1/3
f 151/1/3 145/1/3 140/1/3
f 151/2/3 140/2/3 150/2/3
f 152/2/3 146/2/3 145/2/3
f 152/1/3 145/1/3 151/1/3
f 153/1/3 147/1/3 146/1/3
f 153/2/3 146/2/3 152/2/3
f 154/6/3 148/6/3 147/6/3
f 154/1/3 147/1/3 153/1/3
f 154/6/3 149/6/3 148/6/3
f 155/6/3 149/6/3 154/6/3
f 156/1/3 153/1/3 152/1/3
f 156/1/3 152/1/3 151/1/3
f 156/1/3 155/1/3 154/1/3
f 156/1/3 154/1/3 153/1/3
f 156/1/3 151/1/3 150/1/3
f 157/1/3 155/1/3 156/1/3
f 158/1/3 155/1/3 157/1/3
f 159/6/3 149/6/3 155/6/3
f 159/1/3 155/1/3 158/1/3
f 160/1/3 156/1/3 150/1/3
f 160/2/3 157/2/3 156/2/3
f 161/1/3 158/1/3 157/1/3
f 161/2/3 157/2/3 160/2/3
f 162/7/3 159/7/3 158/7/3
f 162/1/3 158/1/3 161/1/3
f 163/6/3 149/6/3 159/6/3
f 163/7/3 159/7/3 162/7/3
f 164/1/3 160/1/3 150/1/3
f 164/1/3 150/1/3 124/1/3
f 164/1/3 162/1/3 161/1/3
f 164/1/3 161/1/3 160/1/3
f 165/1/3 162/1/3 164/1/3
f 166/1/3 162/1/3 165/1/3
f 167/6/3 163/6/3 162/6/3
f 167/1/3 162/1/3 166/1/3
f 168/2/3 124/2/3 123/2/3
f 169/1/3 164/1/3 124/1/3
f 169/2/3 124/2/3 168/2/3
f 170/2/3 165/2/3 164/2/3
f 170/1/3 164/1/3 169/1/3
f 171/1/3 166/1/3 165/1/3
f 171/2/3 165/2/3 170/2/3
f 172/6/3 167/6/3 166/6/3
f 172/1/3 166/1/3 171/1/3
f 173/6/3 163/6/3 167/6/3
f 173/6/3 167/6/3 172/6/3
f 173/6/3 149/6/3 163/6/3
f 173/6/3 128/6/3 149/6/3
f 175/1/4 176/1/4 178/1/4
f 178/1/4 176/1/4 179/1/4
f 176/6/4 177/6/4 180/6/4
f 179/1/4 176/1/4 180/1/4
f 180/6/4 177/6/4 181/6/4
f 178/2/4 179/2/4 182/2/4
f 175/1/4 178/1/4 182/1/4
f 180/1/4 181/1/4 183/1/4
f 182/2/4 179/2/4 183/2/4
f 179/1/4 180/1/4 183/1/4
f 181/6/4 177/6/4 184/6/4
f 183/1/4 181/1/4 184/1/4
f 184/6/4 177/6/4 185/6/4
f 182/1/4 183/1/4 186/1/4
f 175/1/4 182/1/4 186/1/4
f 186/1/4 183/1/4 187/1/4
f 184/7/4 185/7/4 188/7/4
f 183/6/4 184/6/4 188/6/4
f 185/6/4 177/6/4 189/6/4
f 188/7/4 185/7/4 189/7/4
f 183/6/4 188/6/4 190/6/4
f 187/1/4 183/1/4 190/1/4
f 188/6/4 189/6/4 190/6/4
f 190/6/4 189/6/4 191/6/4
f 190/1/4 191/1/4 192/1/4
f 191/6/4 189/6/4 193/6/4
f 192/1/4 191/1/4 193/1/4
f 175/1/4 186/1/4 194/1/4
f 186/2/4 187/2/4 194/2/4
f 187/1/4 190/1/4 195/1/4
f 194/2/4 187/2/4 195/2/4
f 190/1/4 192/1/4 195/1/4
f 195/1/4 192/1/4 196/1/4
f 196/1/4 192/1/4 197/1/4
f 197/1/4 192/1/4 198/1/4
f 192/6/4 193/6/4 199/6/4
f 198/1/4 192/1/4 199/1/4
f 193/6/4 189/6/4 200/6/4
f 199/6/4 193/6/4 200/6/4
f 189/6/4 177/6/4 201/6/4
f 200/6/4 189/6/4 201/6/4
f 194/1/4 195/1/4 202/1/4
f 195/1/4 196/1/4 202/1/4
f 196/2/4 197/2/4 202/2/4
f 197/1/4 198/1/4 203/1/4
f 202/2/4 197/2/4 203/2/4
f 199/6/4 200/6/4 204/6/4
f 203/1/4 198/1/4 204/1/4
f 198/6/4 199/6/4 204/6/4
f 204/6/4 200/6/4 205/6/4
f 200/7/4 201/7/4 206/7/4
f 205/6/4 200/6/4 206/6/4
f 206/7/4 201/7/4 207/7/4
f 202/1/4 203/1/4 208/1/4
f 204/1/4 205/1/4 208/1/4
f 206/6/4 207/6/4 208/6/4
f 205/6/4 206/6/4 208/6/4
f 203/1/4 204/1/4 208/1/4
f 208/6/4 207/6/4 209/6/4
f 194/1/4 202/1/4 210/1/4
f 202/1/4 208/1/4 210/1/4
f 208/1/4 209/1/4 210/1/4
f 210/1/4 209/1/4 211/1/4
f 211/1/4 209/1/4 212/1/4
f 209/6/4 207/6/4 213/6/4
f 212/1/4 209/1/4 213/1/4
f 174/2/4 175/2/4 214/2/4
f 175/1/4 194/1/4 215/1/4
f 214/2/4 175/2/4 215/2/4
f 194/1/4 210/1/4 215/1/4
f 210/2/4 211/2/4 216/2/4
f 215/1/4 210/1/4 216/1/4
f 211/1/4 212/1/4 217/1/4
f 216/2/4 211/2/4 217/2/4
f 212/6/4 213/6/4 218/6/4
f 217/1/4 212/1/4 218/1/4
f 213/6/4 207/6/4 219/6/4
f 218/6/4 213/6/4 219/6/4
f 222/2/5 221/2/5 220/2/5
f 223/2/5 221/2/5 222/2/5
f 224/1/5 223/1/5 222/1/5
f 225/1/5 223/1/5 224/1/5
f 226/1/5 224/1/5 222/1/5
f 226/2/5 225/2/5 224/2/5
f 227/2/5 225/2/5 226/2/5
f 228/2/5 222/2/5 220/2/5
f 229/1/5 226/1/5 222/1/5
f 229/2/5 222/2/5 228/2/5
f 229/1/5 227/1/5 226/1/5
f 230/1/5 229/1/5 228/1/5
f 231/1/5 227/1/5 229/1/5
f 231/1/5 229/1/5 230/1/5
f 232/2/5 231/2/5 230/2/5
f 233/2/5 231/2/5 232/2/5
f 234/6/6 235/6/6 236/6/6
f 236/6/6 235/6/6 237/6/6
f 237/6/6 235/6/6 238/6/6
f 238/6/6 235/6/6 239/6/6
f 234/6/6 236/6/6 240/6/6
f 240/6/6 236/6/6 241/6/6
f 241/6/6 236/6/6 242/6/6
f 236/7/6 237/7/6 243/7/6
f 242/6/6 236/6/6 243/6/6
f 237/6/6 238/6/6 244/6/6
f 243/7/6 237/7/6 244/7/6
f 238/5/6 239/5/6 245/5/6
f 244/6/6 238/6/6 245/6/6
f 239/6/6 235/6/6 246/6/6
f 245/5/6 239/5/6 246/5/6
f 246/6/6 235/6/6 247/6/6
f 247/6/6 235/6/6 248/6/6
f 248/6/6 235/6/6 249/6/6
f 234/6/6 240/6/6 250/6/6
f 240/7/6 241/7/6 251/7/6
f 250/6/6 240/6/6 251/6/6
f 241/5/6 242/5/6 252/5/6
f 251/7/6 241/7/6 252/7/6
f 244/6/6 245/6/6 253/6/6
f 252/5/6 242/5/6 253/5/6
f 242/6/6 243/6/6 253/6/6
f 243/6/6 244/6/6 253/6/6
f 245/4/6 246/4/6 254/4/6
f 253/6/6 245/6/6 254/6/6
f 246/5/6 247/5/6 255/5/6
f 254/4/6 246/4/6 255/4/6
f 250/7/6 251/7/6 256/7/6
f 251/6/6 252/6/6 257/6/6
f 256/7/6 251/7/6 257/7/6
f 252/6/6 253/6/6 257/6/6
f 254/6/6 255/6/6 257/6/6
f 253/6/6 254/6/6 257/6/6
f 257/6/6 255/6/6 258/6/6
f 258/6/6 255/6/6 259/6/6
f 255/5/6 247/5/6 260/5/6
f 247/6/6 248/6/6 260/6/6
f 248/7/6 249/7/6 261/7/6
f 260/6/6 248/6/6 261/6/6
f 261/7/6 249/7/6 262/7/6
f 258/7/6 259/7/6 263/7/6
f 256/6/6 257/6/6 263/6/6
f 257/6/6 258/6/6 263/6/6
f 259/6/6 255/6/6 264/6/6
f 263/7/6 259/7/6 264/7/6
f 264/6/6 255/6/6 265/6/6
f 255/5/6 260/5/6 266/5/6
f 260/7/6 261/7/6 266/7/6
f 261/6/6 262/6/6 267/6/6
f 266/7/6 261/7/6 267/7/6
f 264/7/6 265/7/6 268/7/6
f 263/6/6 264/6/6 268/6/6
f 265/6/6 255/6/6 269/6/6
f 268/7/6 265/7/6 269/7/6
f 256/6/6 263/6/6 270/6/6
f 263/6/6 268/6/6 270/6/6
f 268/6/6 269/6/6 270/6/6
f 270/6/6 269/6/6 271/6/6
f 271/6/6 269/6/6 272/6/6
f 269/6/6 255/6/6 273/6/6
f 272/6/6 269/6/6 273/6/6
f 255/5/6 266/5/6 274/5/6
f 273/6/6 255/6/6 274/6/6
f 266/6/6 267/6/6 275/6/6
f 274/5/6 266/5/6 275/5/6
f 267/6/6 262/6/6 276/6/6
f 275/6/6 267/6/6 276/6/6
f 271/5/6 272/5/6 277/5/6
f 270/7/6 271/7/6 277/7/6
f 272/6/6 273/6/6 278/6/6
f 277/5/6 272/5/6 278/5/6
f 278/6/6 273/6/6 279/6/6
f 279/6/6 273/6/6 280/6/6
f 273/4/6 274/4/6 281/4/6
f 280/6/6 273/6/6 281/6/6
f 274/5/6 275/5/6 282/5/6
f 281/4/6 274/4/6 282/4/6
f 275/7/6 276/7/6 283/7/6
f 282/5/6 275/5/6 283/5/6
f 283/7/6 276/7/6 284/7/6
f 270/7/6 277/7/6 285/7/6
f 256/6/6 270/6/6 285/6/6
f 277/6/6 278/6/6 286/6/6
f 285/7/6 277/7/6 286/7/6
f 278/6/6 279/6/6 286/6/6
f 279/7/6 280/7/6 287/7/6
f 286/6/6 279/6/6 287/6/6
f 280/6/6 281/6/6 288/6/6
f 287/7/6 280/7/6 288/7/6
f 281/5/6 282/5/6 289/5/6
f 288/6/6 281/6/6 289/6/6
f 282/7/6 283/7/6 290/7/6
f 289/5/6 282/5/6 290/5/6
f 283/6/6 284/6/6 291/6/6
f 290/7/6 283/7/6 291/7/6
f 285/6/6 286/6/6 292/6/6
f 286/6/6 287/6/6 292/6/6
f 287/6/6 288/6/6 292/6/6
f 288/6/6 289/6/6 292/6/6
f 256/6/6 285/6/6 292/6/6
f 289/7/6 290/7/6 293/7/6
f 292/6/6 289/6/6 293/6/6
f 290/6/6 291/6/6 294/6/6
f 293/7/6 290/7/6 294/7/6
f 291/6/6 284/6/6 295/6/6
f 294/6/6 291/6/6 295/6/6
